<svg xmlns="http://www.w3.org/2000/svg" xmlns:xlink="http://www.w3.org/1999/xlink" viewBox="0 0 24 46.25" version="1.1" x="0px" y="0px"><g stroke="none" stroke-width="1" fill="none" fill-rule="evenodd"><g transform="translate(-168.000000, -176.000000)" fill="#fff"><g transform="translate(168.000000, 176.000000)"><path d="M6.5851,11.2933 C3.5331,11.2933 1.0361,8.7963 1.0361,5.7443 C1.0361,2.6933 3.5331,0.1963 6.5851,0.1963 L17.6381,0.1963 C20.6891,0.1963 23.1861,2.6933 23.1861,5.7443 C23.1861,8.7963 20.6891,11.2933 17.6381,11.2933 L6.5851,11.2933 Z"/><path d="M6.4382,23.9957 L12.0872,23.9957 L12.0872,12.8957 L6.4382,12.8957 C4.9152,12.8957 3.5272,13.5197 2.5212,14.5257 C1.5152,15.5317 0.8912,16.9207 0.8912,18.4487 C0.8912,21.4987 3.3872,23.9957 6.4382,23.9957"/><path d="M18.1757,13.0093 C15.1117,13.0093 12.6267,15.4933 12.6267,18.5583 C12.6267,21.6223 15.1117,24.1063 18.1757,24.1063 C21.2397,24.1063 23.7247,21.6223 23.7247,18.5583 C23.7247,15.4933 21.2397,13.0093 18.1757,13.0093"/><path d="M12.0779,25.5785 L6.3299,25.5785 L6.3299,25.5895 C3.3639,25.7005 0.9919,28.1335 0.9919,31.1275 C0.9919,34.1915 3.4759,36.6755 6.5399,36.6755 C9.5089,36.6755 11.9269,34.3415 12.0749,31.4095 L12.0779,31.4095 L12.0779,31.3465 C12.0809,31.2735 12.0889,31.2015 12.0889,31.1275 C12.0889,31.0535 12.0809,30.9815 12.0779,30.9075 L12.0779,25.5785 Z"/></g></g></g></svg>